# xmcd
#
# Track frame offsets:
#	150
#	14138
#	33506
#	46447
#	63921
#	73551
#	86291
#	100891
#	115606
#	126348
#	138018
#	148686
#	161376
#	171701
#	181583
#	193480
#	207355
#
# Disc length: 2911 seconds
#
# Revision: 1
# Processed by: cddbd v1.4PL0 Copyright (c) Steve Scherf et al.
# Submitted via: EasyCDDAExtractor 6.2.0.3
#
DISCID=f50b5d11
DTITLE=Lynn Anderson - Lynn Anderson [CD2)
DYEAR=1999
DGENRE=Country
TTITLE0=Two Doors Down
TTITLE1=Love Has no Pride
TTITLE2=A Mansion on the Hill
TTITLE3=Close to You
TTITLE4=Snowbird
TTITLE5=I Fall to Pieces
TTITLE6=Gone at Last
TTITLE7=Sing Me a Sad Song
TTITLE8=Lie a Little
TTITLE9=You're My Man
TTITLE10=Silver Threads and Golden Needles
TTITLE11=It Must be Love
TTITLE12=Fool Me
TTITLE13=What a Man My Man Is
TTITLE14=You Don't Have to Say You Love Me
TTITLE15=Paradise
TTITLE16=Heaven's Just a Sin Away
EXTD=
EXTT0=
EXTT1=
EXTT2=
EXTT3=
EXTT4=
EXTT5=
EXTT6=
EXTT7=
EXTT8=
EXTT9=
EXTT10=
EXTT11=
EXTT12=
EXTT13=
EXTT14=
EXTT15=
EXTT16=
PLAYORDER=
